<svg width="98" height="98" viewBox="0 0 98 98" fill="none" xmlns="http://www.w3.org/2000/svg">
<g clip-path="url(#clip0_2_350)">
<path d="M88.0173 32.0078C87.5666 30.9748 86.3682 30.4981 85.3292 30.9508C84.2963 31.4015 83.8216 32.6047 84.2723 33.6388C90.6315 48.2415 87.4628 64.9535 76.1982 76.217C68.9319 83.4833 59.2706 87.4855 48.9952 87.4855C40.0246 87.4855 31.5223 84.4345 24.6726 78.8248L39.0827 75.7385C40.1854 75.5021 40.8893 74.4163 40.6521 73.3138C40.4149 72.211 39.3219 71.5061 38.2293 71.7443L19.9199 75.6657C18.8171 75.902 18.1132 76.9879 18.3504 78.0905L22.2709 96.4011C22.7389 98.2454 24.4826 98.0068 24.6938 97.9706C25.7194 97.7947 26.5003 96.6484 26.2631 95.5458L23.6169 83.1821C30.9134 88.6257 39.728 91.5696 48.9954 91.5696C60.3616 91.5696 71.0478 87.1427 79.0861 79.1046C91.5468 66.6465 95.0523 48.1607 88.0173 32.0078Z" fill="#FFC148"/>
<path d="M88.0173 32.0078C87.5666 30.9748 86.3682 30.4981 85.3292 30.9508C84.2963 31.4015 83.8216 32.6047 84.2723 33.6388C90.6315 48.2415 87.4628 64.9535 76.1982 76.217C68.9319 83.4833 59.2706 87.4855 48.9952 87.4855C40.0246 87.4855 31.5223 84.4345 24.6726 78.8248L39.0827 75.7385C40.1854 75.5021 40.8893 74.4163 40.6521 73.3138C40.4149 72.211 39.3219 71.5061 38.2293 71.7443L19.9199 75.6657C18.8171 75.902 18.1132 76.9879 18.3504 78.0905L22.2709 96.4011C22.7389 98.2454 24.4826 98.0068 24.6938 97.9706C25.7194 97.7947 26.5003 96.6484 26.2631 95.5458L23.6169 83.1821C30.9134 88.6257 39.728 91.5696 48.9954 91.5696C60.3616 91.5696 71.0478 87.1427 79.0861 79.1046C91.5468 66.6465 95.0523 48.1607 88.0173 32.0078Z" fill="url(#paint0_linear_2_350)"/>
<path d="M21.8003 21.801C35.8733 7.72719 58.2258 6.86006 73.3249 19.194L58.9159 22.2797C57.8131 22.5159 57.1094 23.6019 57.3466 24.7044C57.5521 25.6626 58.3974 26.3185 59.3406 26.3185C59.4518 26.4773 78.0809 22.3523 78.0809 22.3523C79.6579 21.9956 79.7639 20.457 79.6501 19.9275L75.7277 1.61725C75.4925 0.515477 74.4017 -0.195433 73.3049 0.0478046C72.2023 0.284041 71.4982 1.37001 71.7355 2.47258L74.3853 14.8459C57.7331 2.45718 34.0128 3.81159 18.9127 18.9137C6.45377 31.3715 2.94803 49.8585 9.98132 66.0116C10.3162 66.7804 11.2413 67.6093 12.6693 67.0686C13.6539 66.6959 14.177 65.4143 13.7263 64.3806C7.36711 49.7777 10.5358 33.0645 21.8003 21.801Z" fill="#FFC148"/>
<path d="M21.8003 21.801C35.8733 7.72719 58.2258 6.86006 73.3249 19.194L58.9159 22.2797C57.8131 22.5159 57.1094 23.6019 57.3466 24.7044C57.5521 25.6626 58.3974 26.3185 59.3406 26.3185C59.4518 26.4773 78.0809 22.3523 78.0809 22.3523C79.6579 21.9956 79.7639 20.457 79.6501 19.9275L75.7277 1.61725C75.4925 0.515477 74.4017 -0.195433 73.3049 0.0478046C72.2023 0.284041 71.4982 1.37001 71.7355 2.47258L74.3853 14.8459C57.7331 2.45718 34.0128 3.81159 18.9127 18.9137C6.45377 31.3715 2.94803 49.8585 9.98132 66.0116C10.3162 66.7804 11.2413 67.6093 12.6693 67.0686C13.6539 66.6959 14.177 65.4143 13.7263 64.3806C7.36711 49.7777 10.5358 33.0645 21.8003 21.801Z" fill="url(#paint1_linear_2_350)"/>
<path d="M29.811 49.5712L23.33 56.0825V59.1381H37.9394V55.6846H28.2519L33.2623 50.5796C34.7931 49.0126 35.8419 47.729 36.4126 46.7304C36.9831 45.7319 37.2683 44.6811 37.2683 43.5823C37.2683 41.6256 36.5932 40.0824 35.2514 38.9514C33.9054 37.8204 32.3424 37.2557 30.5583 37.2557C28.7742 37.2557 27.3198 37.6114 26.1866 38.3245C25.0574 39.0378 24.0209 40.0986 23.0847 41.5028L25.9898 43.1843C27.1509 41.3922 28.6056 40.4942 30.3612 40.4942C31.3578 40.4942 32.1815 40.7957 32.8362 41.3964C33.4871 41.9971 33.8128 42.7262 33.8128 43.5823C33.8128 44.4381 33.5075 45.2838 32.8968 46.1175C32.2861 46.9536 31.2574 48.1048 29.811 49.5712Z" fill="#FFC148"/>
<path d="M29.811 49.5712L23.33 56.0825V59.1381H37.9394V55.6846H28.2519L33.2623 50.5796C34.7931 49.0126 35.8419 47.729 36.4126 46.7304C36.9831 45.7319 37.2683 44.6811 37.2683 43.5823C37.2683 41.6256 36.5932 40.0824 35.2514 38.9514C33.9054 37.8204 32.3424 37.2557 30.5583 37.2557C28.7742 37.2557 27.3198 37.6114 26.1866 38.3245C25.0574 39.0378 24.0209 40.0986 23.0847 41.5028L25.9898 43.1843C27.1509 41.3922 28.6056 40.4942 30.3612 40.4942C31.3578 40.4942 32.1815 40.7957 32.8362 41.3964C33.4871 41.9971 33.8128 42.7262 33.8128 43.5823C33.8128 44.4381 33.5075 45.2838 32.8968 46.1175C32.2861 46.9536 31.2574 48.1048 29.811 49.5712Z" fill="url(#paint2_linear_2_350)"/>
<path d="M53.2802 59.1383V53.7601H55.8476V50.4894H53.2802V46.5778H49.8569V50.4894H44.7539L52.4847 37.7742H48.5429L40.6879 50.5798V53.7601H49.8569V59.1383H53.2802Z" fill="#FFC148"/>
<path d="M53.2802 59.1383V53.7601H55.8476V50.4894H53.2802V46.5778H49.8569V50.4894H44.7539L52.4847 37.7742H48.5429L40.6879 50.5798V53.7601H49.8569V59.1383H53.2802Z" fill="url(#paint3_linear_2_350)"/>
<path d="M74.4915 59.1384V49.1756C74.4915 47.0561 73.929 45.4369 72.7959 44.3159C71.6667 43.1949 70.1841 42.6344 68.348 42.6344C67.2068 42.6344 66.142 42.9197 65.1535 43.4902C64.1649 44.0606 63.4298 44.8462 62.9395 45.8427V36.4907H59.516V59.1386H62.9395V50.337C62.9395 48.8282 63.3774 47.6832 64.2533 46.8977C65.1293 46.114 66.1578 45.7223 67.3392 45.7223C69.8264 45.7223 71.0678 47.2189 71.0678 50.2146V59.1386H74.4915V59.1384Z" fill="#FFC148"/>
<path d="M74.4915 59.1384V49.1756C74.4915 47.0561 73.929 45.4369 72.7959 44.3159C71.6667 43.1949 70.1841 42.6344 68.348 42.6344C67.2068 42.6344 66.142 42.9197 65.1535 43.4902C64.1649 44.0606 63.4298 44.8462 62.9395 45.8427V36.4907H59.516V59.1386H62.9395V50.337C62.9395 48.8282 63.3774 47.6832 64.2533 46.8977C65.1293 46.114 66.1578 45.7223 67.3392 45.7223C69.8264 45.7223 71.0678 47.2189 71.0678 50.2146V59.1386H74.4915V59.1384Z" fill="url(#paint4_linear_2_350)"/>
</g>
<defs>
<linearGradient id="paint0_linear_2_350" x1="54.9523" y1="30.7796" x2="54.9523" y2="98" gradientUnits="userSpaceOnUse">
<stop stop-color="#51A0FF"/>
<stop offset="1" stop-color="#005ECE"/>
</linearGradient>
<linearGradient id="paint1_linear_2_350" x1="43.0414" y1="6.10352e-05" x2="43.0414" y2="67.2418" gradientUnits="userSpaceOnUse">
<stop stop-color="#51A0FF"/>
<stop offset="1" stop-color="#005ECE"/>
</linearGradient>
<linearGradient id="paint2_linear_2_350" x1="30.5121" y1="37.2557" x2="30.5121" y2="59.1381" gradientUnits="userSpaceOnUse">
<stop stop-color="#51A0FF"/>
<stop offset="1" stop-color="#005ECE"/>
</linearGradient>
<linearGradient id="paint3_linear_2_350" x1="48.2677" y1="37.7742" x2="48.2677" y2="59.1383" gradientUnits="userSpaceOnUse">
<stop stop-color="#51A0FF"/>
<stop offset="1" stop-color="#005ECE"/>
</linearGradient>
<linearGradient id="paint4_linear_2_350" x1="67.0038" y1="36.4907" x2="67.0038" y2="59.1386" gradientUnits="userSpaceOnUse">
<stop stop-color="#51A0FF"/>
<stop offset="1" stop-color="#005ECE"/>
</linearGradient>
<clipPath id="clip0_2_350">
<rect width="98" height="98" fill="white"/>
</clipPath>
</defs>
</svg>
