<svg width="100" height="100" viewBox="0 0 100 100" fill="none" xmlns="http://www.w3.org/2000/svg">
<g clip-path="url(#clip0_2:298)">
<path d="M38.7141 27.2949L27.7365 38.2726L24.7346 35.2707L35.7123 24.2931L38.7141 27.2949Z" fill="black"/>
<path d="M38.7141 27.2949L27.7365 38.2726L24.7346 35.2707L35.7123 24.2931L38.7141 27.2949Z" fill="url(#paint0_linear_2:298)"/>
<path d="M99.959 55.5784L84.2289 31.9729H64.8687V49.2002H57.8548V31.9729H52.5226C50.8203 18.991 39.8482 9.12634 26.3741 9.12634C11.6899 9.12634 0 21.0418 0 35.5004C0 45.2215 5.27071 53.6711 13.187 58.1829V79.1838H23.6259C23.9541 85.7055 29.3478 90.8737 35.9516 90.8737C42.5554 90.8737 47.9491 85.685 48.2773 79.1838H64.7252C65.0533 85.7055 70.4471 90.8737 77.0509 90.8737C83.6546 90.8737 89.0484 85.685 89.3765 79.1838H100V55.5784H99.959ZM77.0098 36.2182H81.9114L93.4372 53.4455H77.0098V36.2182ZM4.24528 35.4799C4.24528 23.3593 14.0279 13.3511 26.3741 13.3511C38.4947 13.3511 48.5029 23.1337 48.5029 35.4799C48.5029 47.8261 38.7203 57.6087 26.3741 57.6087C14.0279 57.6087 4.24528 47.621 4.24528 35.4799ZM35.9516 86.4233C31.6038 86.4233 28.0763 82.8958 28.0763 78.548C28.0763 74.2002 31.6038 70.6727 35.9516 70.6727C40.2994 70.6727 43.8269 74.2002 43.8269 78.548C43.8269 82.8958 40.2789 86.4233 35.9516 86.4233ZM77.0303 86.4233C72.6825 86.4233 69.155 82.8958 69.155 78.548C69.155 74.2002 72.6825 70.6727 77.0303 70.6727C81.3782 70.6727 84.9057 74.2002 84.9057 78.548C84.9057 82.8958 81.3782 86.4233 77.0303 86.4233ZM95.7137 74.918H88.8228V74.9385C87.2847 69.8934 82.5882 66.2223 77.0303 66.2223C71.4725 66.2223 66.776 69.8934 65.2379 74.9385H47.744C46.2059 69.8934 41.5094 66.2223 35.9516 66.2223C30.3938 66.2223 25.6973 69.8934 24.1591 74.9385H17.4323V60.1313C20.2215 61.1157 23.2158 61.6489 26.3741 61.6489C40.5865 61.6489 52.3585 50.5537 52.7276 36.2182H53.589V53.4455H69.114V36.2182H72.744V57.6907H95.7137V74.918Z" fill="black"/>
<path d="M99.959 55.5784L84.2289 31.9729H64.8687V49.2002H57.8548V31.9729H52.5226C50.8203 18.991 39.8482 9.12634 26.3741 9.12634C11.6899 9.12634 0 21.0418 0 35.5004C0 45.2215 5.27071 53.6711 13.187 58.1829V79.1838H23.6259C23.9541 85.7055 29.3478 90.8737 35.9516 90.8737C42.5554 90.8737 47.9491 85.685 48.2773 79.1838H64.7252C65.0533 85.7055 70.4471 90.8737 77.0509 90.8737C83.6546 90.8737 89.0484 85.685 89.3765 79.1838H100V55.5784H99.959ZM77.0098 36.2182H81.9114L93.4372 53.4455H77.0098V36.2182ZM4.24528 35.4799C4.24528 23.3593 14.0279 13.3511 26.3741 13.3511C38.4947 13.3511 48.5029 23.1337 48.5029 35.4799C48.5029 47.8261 38.7203 57.6087 26.3741 57.6087C14.0279 57.6087 4.24528 47.621 4.24528 35.4799ZM35.9516 86.4233C31.6038 86.4233 28.0763 82.8958 28.0763 78.548C28.0763 74.2002 31.6038 70.6727 35.9516 70.6727C40.2994 70.6727 43.8269 74.2002 43.8269 78.548C43.8269 82.8958 40.2789 86.4233 35.9516 86.4233ZM77.0303 86.4233C72.6825 86.4233 69.155 82.8958 69.155 78.548C69.155 74.2002 72.6825 70.6727 77.0303 70.6727C81.3782 70.6727 84.9057 74.2002 84.9057 78.548C84.9057 82.8958 81.3782 86.4233 77.0303 86.4233ZM95.7137 74.918H88.8228V74.9385C87.2847 69.8934 82.5882 66.2223 77.0303 66.2223C71.4725 66.2223 66.776 69.8934 65.2379 74.9385H47.744C46.2059 69.8934 41.5094 66.2223 35.9516 66.2223C30.3938 66.2223 25.6973 69.8934 24.1591 74.9385H17.4323V60.1313C20.2215 61.1157 23.2158 61.6489 26.3741 61.6489C40.5865 61.6489 52.3585 50.5537 52.7276 36.2182H53.589V53.4455H69.114V36.2182H72.744V57.6907H95.7137V74.918Z" fill="url(#paint1_linear_2:298)"/>
<path d="M28.4865 16.1403H24.2412V19.9754H28.4865V16.1403Z" fill="black"/>
<path d="M28.4865 16.1403H24.2412V19.9754H28.4865V16.1403Z" fill="url(#paint2_linear_2:298)"/>
<path d="M28.4865 51.0049H24.2412V54.84H28.4865V51.0049Z" fill="black"/>
<path d="M28.4865 51.0049H24.2412V54.84H28.4865V51.0049Z" fill="url(#paint3_linear_2:298)"/>
<path d="M10.849 33.3675H7.01392V37.6128H10.849V33.3675Z" fill="black"/>
<path d="M10.849 33.3675H7.01392V37.6128H10.849V33.3675Z" fill="url(#paint4_linear_2:298)"/>
<path d="M45.7343 33.3675H41.8992V37.6128H45.7343V33.3675Z" fill="black"/>
<path d="M45.7343 33.3675H41.8992V37.6128H45.7343V33.3675Z" fill="url(#paint5_linear_2:298)"/>
</g>
<defs>
<linearGradient id="paint0_linear_2:298" x1="31.7244" y1="24.2931" x2="31.7244" y2="38.2726" gradientUnits="userSpaceOnUse">
<stop stop-color="#FFDC97"/>
<stop offset="1" stop-color="#FFC148"/>
</linearGradient>
<linearGradient id="paint1_linear_2:298" x1="50" y1="9.12634" x2="50" y2="90.8737" gradientUnits="userSpaceOnUse">
<stop stop-color="#FFDC97"/>
<stop offset="1" stop-color="#FFC148"/>
</linearGradient>
<linearGradient id="paint2_linear_2:298" x1="26.3639" y1="16.1403" x2="26.3639" y2="19.9754" gradientUnits="userSpaceOnUse">
<stop stop-color="#FFDC97"/>
<stop offset="1" stop-color="#FFC148"/>
</linearGradient>
<linearGradient id="paint3_linear_2:298" x1="26.3639" y1="51.0049" x2="26.3639" y2="54.84" gradientUnits="userSpaceOnUse">
<stop stop-color="#FFDC97"/>
<stop offset="1" stop-color="#FFC148"/>
</linearGradient>
<linearGradient id="paint4_linear_2:298" x1="8.93147" y1="33.3675" x2="8.93147" y2="37.6128" gradientUnits="userSpaceOnUse">
<stop stop-color="#FFDC97"/>
<stop offset="1" stop-color="#FFC148"/>
</linearGradient>
<linearGradient id="paint5_linear_2:298" x1="43.8167" y1="33.3675" x2="43.8167" y2="37.6128" gradientUnits="userSpaceOnUse">
<stop stop-color="#FFDC97"/>
<stop offset="1" stop-color="#FFC148"/>
</linearGradient>
<clipPath id="clip0_2:298">
<rect width="100" height="100" fill="white"/>
</clipPath>
</defs>
</svg>
