<svg width="87" height="87" viewBox="0 0 87 87" fill="none" xmlns="http://www.w3.org/2000/svg">
<g clip-path="url(#clip0_2_359)">
<path d="M33.6813 23.7466L24.1308 33.2971L21.5192 30.6855L31.0697 21.135L33.6813 23.7466Z" fill="black"/>
<path d="M33.6813 23.7466L24.1308 33.2971L21.5192 30.6855L31.0697 21.135L33.6813 23.7466Z" fill="url(#paint0_linear_2_359)"/>
<path d="M86.9643 48.3532L73.2791 27.8164H56.4358V42.8041H50.3337V27.8164H45.6946C44.2137 16.5221 34.668 7.93991 22.9454 7.93991C10.1702 7.93991 0 18.3064 0 30.8854C0 39.3427 4.58552 46.6938 11.4727 50.6192V68.8899H20.5546C20.84 74.5638 25.5326 79.0601 31.2779 79.0601C37.0232 79.0601 41.7158 74.5459 42.0012 68.8899H56.3109C56.5964 74.5638 61.289 79.0601 67.0342 79.0601C72.7795 79.0601 77.4721 74.5459 77.7576 68.8899H87V48.3532H86.9643ZM66.9986 31.5098H71.2629L81.2904 46.4975H66.9986V31.5098ZM3.6934 30.8675C3.6934 20.3226 12.2043 11.6155 22.9454 11.6155C33.4904 11.6155 42.1975 20.1263 42.1975 30.8675C42.1975 41.6087 33.6866 50.1196 22.9454 50.1196C12.2043 50.1196 3.6934 41.4303 3.6934 30.8675ZM31.2779 75.1883C27.4953 75.1883 24.4264 72.1194 24.4264 68.3367C24.4264 64.5541 27.4953 61.4852 31.2779 61.4852C35.0605 61.4852 38.1294 64.5541 38.1294 68.3367C38.1294 72.1194 35.0427 75.1883 31.2779 75.1883ZM67.0164 75.1883C63.2338 75.1883 60.1649 72.1194 60.1649 68.3367C60.1649 64.5541 63.2338 61.4852 67.0164 61.4852C70.799 61.4852 73.8679 64.5541 73.8679 68.3367C73.8679 72.1194 70.799 75.1883 67.0164 75.1883ZM83.2709 65.1786H77.2758V65.1965C75.9377 60.8072 71.8517 57.6134 67.0164 57.6134C62.1811 57.6134 58.0952 60.8072 56.757 65.1965H41.5373C40.1991 60.8072 36.1132 57.6134 31.2779 57.6134C26.4426 57.6134 22.3566 60.8072 21.0185 65.1965H15.1661V52.3142C17.5927 53.1706 20.1977 53.6345 22.9454 53.6345C35.3103 53.6345 45.5519 43.9817 45.8731 31.5098H46.6224V46.4975H60.1292V31.5098H63.2873V50.1909H83.2709V65.1786Z" fill="black"/>
<path d="M86.9643 48.3532L73.2791 27.8164H56.4358V42.8041H50.3337V27.8164H45.6946C44.2137 16.5221 34.668 7.93991 22.9454 7.93991C10.1702 7.93991 0 18.3064 0 30.8854C0 39.3427 4.58552 46.6938 11.4727 50.6192V68.8899H20.5546C20.84 74.5638 25.5326 79.0601 31.2779 79.0601C37.0232 79.0601 41.7158 74.5459 42.0012 68.8899H56.3109C56.5964 74.5638 61.289 79.0601 67.0342 79.0601C72.7795 79.0601 77.4721 74.5459 77.7576 68.8899H87V48.3532H86.9643ZM66.9986 31.5098H71.2629L81.2904 46.4975H66.9986V31.5098ZM3.6934 30.8675C3.6934 20.3226 12.2043 11.6155 22.9454 11.6155C33.4904 11.6155 42.1975 20.1263 42.1975 30.8675C42.1975 41.6087 33.6866 50.1196 22.9454 50.1196C12.2043 50.1196 3.6934 41.4303 3.6934 30.8675ZM31.2779 75.1883C27.4953 75.1883 24.4264 72.1194 24.4264 68.3367C24.4264 64.5541 27.4953 61.4852 31.2779 61.4852C35.0605 61.4852 38.1294 64.5541 38.1294 68.3367C38.1294 72.1194 35.0427 75.1883 31.2779 75.1883ZM67.0164 75.1883C63.2338 75.1883 60.1649 72.1194 60.1649 68.3367C60.1649 64.5541 63.2338 61.4852 67.0164 61.4852C70.799 61.4852 73.8679 64.5541 73.8679 68.3367C73.8679 72.1194 70.799 75.1883 67.0164 75.1883ZM83.2709 65.1786H77.2758V65.1965C75.9377 60.8072 71.8517 57.6134 67.0164 57.6134C62.1811 57.6134 58.0952 60.8072 56.757 65.1965H41.5373C40.1991 60.8072 36.1132 57.6134 31.2779 57.6134C26.4426 57.6134 22.3566 60.8072 21.0185 65.1965H15.1661V52.3142C17.5927 53.1706 20.1977 53.6345 22.9454 53.6345C35.3103 53.6345 45.5519 43.9817 45.8731 31.5098H46.6224V46.4975H60.1292V31.5098H63.2873V50.1909H83.2709V65.1786Z" fill="url(#paint1_linear_2_359)"/>
<path d="M24.7832 14.042H21.0898V17.3786H24.7832V14.042Z" fill="black"/>
<path d="M24.7832 14.042H21.0898V17.3786H24.7832V14.042Z" fill="url(#paint2_linear_2_359)"/>
<path d="M24.7832 44.3743H21.0898V47.7108H24.7832V44.3743Z" fill="black"/>
<path d="M24.7832 44.3743H21.0898V47.7108H24.7832V44.3743Z" fill="url(#paint3_linear_2_359)"/>
<path d="M9.43872 29.0297H6.10217V32.7231H9.43872V29.0297Z" fill="black"/>
<path d="M9.43872 29.0297H6.10217V32.7231H9.43872V29.0297Z" fill="url(#paint4_linear_2_359)"/>
<path d="M39.7888 29.0297H36.4523V32.7231H39.7888V29.0297Z" fill="black"/>
<path d="M39.7888 29.0297H36.4523V32.7231H39.7888V29.0297Z" fill="url(#paint5_linear_2_359)"/>
</g>
<defs>
<linearGradient id="paint0_linear_2_359" x1="27.6002" y1="21.135" x2="27.6002" y2="33.2971" gradientUnits="userSpaceOnUse">
<stop stop-color="#A3A3A3"/>
<stop offset="1" stop-color="#282828"/>
</linearGradient>
<linearGradient id="paint1_linear_2_359" x1="43.5" y1="7.93991" x2="43.5" y2="79.0601" gradientUnits="userSpaceOnUse">
<stop stop-color="#A3A3A3"/>
<stop offset="1" stop-color="#282828"/>
</linearGradient>
<linearGradient id="paint2_linear_2_359" x1="22.9365" y1="14.042" x2="22.9365" y2="17.3786" gradientUnits="userSpaceOnUse">
<stop stop-color="#A3A3A3"/>
<stop offset="1" stop-color="#282828"/>
</linearGradient>
<linearGradient id="paint3_linear_2_359" x1="22.9365" y1="44.3743" x2="22.9365" y2="47.7108" gradientUnits="userSpaceOnUse">
<stop stop-color="#A3A3A3"/>
<stop offset="1" stop-color="#282828"/>
</linearGradient>
<linearGradient id="paint4_linear_2_359" x1="7.77045" y1="29.0297" x2="7.77045" y2="32.7231" gradientUnits="userSpaceOnUse">
<stop stop-color="#A3A3A3"/>
<stop offset="1" stop-color="#282828"/>
</linearGradient>
<linearGradient id="paint5_linear_2_359" x1="38.1205" y1="29.0297" x2="38.1205" y2="32.7231" gradientUnits="userSpaceOnUse">
<stop stop-color="#A3A3A3"/>
<stop offset="1" stop-color="#282828"/>
</linearGradient>
<clipPath id="clip0_2_359">
<rect width="87" height="87" fill="white"/>
</clipPath>
</defs>
</svg>
