<svg width="15" height="23" viewBox="0 0 15 23" fill="none" xmlns="http://www.w3.org/2000/svg">
<path d="M7.5 0C3.36458 0 0 3.36458 0 7.5C0 8.74145 0.310385 9.97236 0.900438 11.0641L7.08986 22.2583C7.17226 22.4075 7.32927 22.5 7.5 22.5C7.67073 22.5 7.82774 22.4075 7.91014 22.2583L14.1018 11.0604C14.6896 9.97236 15 8.74141 15 7.49996C15 3.36458 11.6354 0 7.5 0ZM7.5 11.25C5.43229 11.25 3.75002 9.56771 3.75002 7.5C3.75002 5.43229 5.43229 3.75002 7.5 3.75002C9.56771 3.75002 11.25 5.43229 11.25 7.5C11.25 9.56771 9.56771 11.25 7.5 11.25Z" fill="#F5B666"/>
</svg>
