<svg width="100" height="100" viewBox="0 0 100 100" fill="none" xmlns="http://www.w3.org/2000/svg">
<path d="M77.7927 71.9425C77.7896 71.9425 77.787 71.9425 77.7839 71.9425H1.29534C0.579793 71.9425 0 71.3627 0 70.6471V48.6705C0 48.6363 0.000518135 48.6016 0.00310881 48.5674C0.0202073 48.315 0.110363 48.0819 0.251295 47.8896C0.305181 47.8155 0.368394 47.7471 0.438342 47.685C0.439378 47.6839 0.439378 47.6839 0.440415 47.6829C0.459586 47.6663 0.478756 47.6503 0.498446 47.6347L24.801 28.3389C25.0301 28.157 25.314 28.058 25.6067 28.058H98.6984C98.7606 28.0549 98.814 28.0617 98.871 28.0689C98.8736 28.0689 98.8756 28.0699 98.8772 28.0699H98.8777C99.0358 28.0912 99.1865 28.1414 99.3233 28.2155C99.3238 28.2161 99.3244 28.2161 99.3249 28.2166C99.3249 28.2166 99.3249 28.2166 99.3254 28.2166C99.4368 28.2777 99.5378 28.3539 99.6249 28.442C99.7218 28.5399 99.8036 28.6539 99.8663 28.7808C99.9145 28.8788 99.9508 28.9834 99.9731 29.0917C99.9731 29.0922 99.9731 29.0927 99.9731 29.0927C99.9731 29.0933 99.9731 29.0938 99.9731 29.0943C99.9917 29.1839 100 29.2751 99.9995 29.3648V35.2984C99.9995 35.301 99.9995 35.3036 99.9995 35.3057V40.7782C99.9995 40.7808 99.9995 40.7834 99.9995 40.7855V46.3124C99.9995 46.315 99.9995 46.3176 99.9995 46.3197V51.3855C99.9995 51.7472 99.8482 52.0927 99.5819 52.3383L78.6705 71.6005C78.6694 71.6016 78.6679 71.6026 78.6668 71.6041C78.6653 71.6057 78.6637 71.6052 78.6627 71.6083C78.6627 71.6083 78.6622 71.6083 78.6622 71.6088C78.4446 71.8057 78.1601 71.9295 77.8466 71.9425C77.8285 71.942 77.8109 71.9425 77.7927 71.9425ZM53.2435 69.3518H76.4974V66.5756H53.2435V69.3518ZM27.8959 69.3518H50.6529V49.9523H27.8959V69.3518ZM2.59067 69.3518H25.3052V66.5756H2.59067V69.3518ZM79.0886 66.186V67.6927L97.4093 50.8171V49.2746L79.0886 66.186ZM53.2435 63.985H76.4974V60.8047H53.2435V63.985ZM2.59067 63.985H25.3052V60.8047H2.59067V63.985ZM79.0886 60.6518V62.6601L97.4093 45.7487V43.7404L79.0886 60.6518ZM53.2435 58.214H76.4974V55.2611H53.2435V58.214ZM2.59067 58.214H25.3052V55.2611H2.59067V58.214ZM79.0886 55.1725V57.1264L97.4093 40.215V38.2611L79.0886 55.1725ZM53.2435 52.6705H76.4974V49.9523H53.2435V52.6705ZM2.59067 52.6705H25.3052V49.9523H2.59067V52.6705ZM79.0886 49.2238V51.6466L97.4093 34.7352V32.3119L79.0886 49.2238ZM55.2544 47.3617H77.2865L95.3917 30.6492H73.3062L70.7684 32.999C71.6202 33.4824 72.4689 34.2186 72.7798 35.3073C73.1953 36.7611 72.5456 38.3197 70.8497 39.9414C66.7057 43.9031 60.3513 44.3544 58.4549 44.3984L55.2544 47.3617ZM30.1902 47.3617H51.4409L57.056 42.1632C57.0611 42.158 57.0663 42.1534 57.0715 42.1487L69.4922 30.6497H50.328L45.2611 34.8544C45.2477 34.8658 45.2342 34.8772 45.2202 34.8881L30.1902 47.3617ZM5.00984 47.3617H26.1332L30.7674 43.5155C30.0016 43.0549 29.285 42.3751 29.0523 41.3912C28.5057 39.0772 31.0342 37.1451 31.8653 36.5098C36.9389 32.6332 42.2477 32.4824 43.9834 32.5477L46.2715 30.6492H26.0585L5.00984 47.3617ZM40.5181 35.4238C38.501 35.8062 35.9238 36.6689 33.4383 38.5684C31.8368 39.7927 31.5181 40.5611 31.5736 40.7959C31.6425 41.0881 32.3021 41.4622 32.972 41.686L40.5181 35.4238ZM68.714 34.9005L61.6275 41.4617C63.9554 41.0394 66.9244 40.1104 69.0596 38.0689C69.9513 37.2161 70.4109 36.4508 70.2896 36.0202C70.1648 35.5798 69.4207 35.1539 68.714 34.9005Z" fill="#000002"/>
<path d="M77.7927 71.9425C77.7896 71.9425 77.787 71.9425 77.7839 71.9425H1.29534C0.579793 71.9425 0 71.3627 0 70.6471V48.6705C0 48.6363 0.000518135 48.6016 0.00310881 48.5674C0.0202073 48.315 0.110363 48.0819 0.251295 47.8896C0.305181 47.8155 0.368394 47.7471 0.438342 47.685C0.439378 47.6839 0.439378 47.6839 0.440415 47.6829C0.459586 47.6663 0.478756 47.6503 0.498446 47.6347L24.801 28.3389C25.0301 28.157 25.314 28.058 25.6067 28.058H98.6984C98.7606 28.0549 98.814 28.0617 98.871 28.0689C98.8736 28.0689 98.8756 28.0699 98.8772 28.0699H98.8777C99.0358 28.0912 99.1865 28.1414 99.3233 28.2155C99.3238 28.2161 99.3244 28.2161 99.3249 28.2166C99.3249 28.2166 99.3249 28.2166 99.3254 28.2166C99.4368 28.2777 99.5378 28.3539 99.6249 28.442C99.7218 28.5399 99.8036 28.6539 99.8663 28.7808C99.9145 28.8788 99.9508 28.9834 99.9731 29.0917C99.9731 29.0922 99.9731 29.0927 99.9731 29.0927C99.9731 29.0933 99.9731 29.0938 99.9731 29.0943C99.9917 29.1839 100 29.2751 99.9995 29.3648V35.2984C99.9995 35.301 99.9995 35.3036 99.9995 35.3057V40.7782C99.9995 40.7808 99.9995 40.7834 99.9995 40.7855V46.3124C99.9995 46.315 99.9995 46.3176 99.9995 46.3197V51.3855C99.9995 51.7472 99.8482 52.0927 99.5819 52.3383L78.6705 71.6005C78.6694 71.6016 78.6679 71.6026 78.6668 71.6041C78.6653 71.6057 78.6637 71.6052 78.6627 71.6083C78.6627 71.6083 78.6622 71.6083 78.6622 71.6088C78.4446 71.8057 78.1601 71.9295 77.8466 71.9425C77.8285 71.942 77.8109 71.9425 77.7927 71.9425ZM53.2435 69.3518H76.4974V66.5756H53.2435V69.3518ZM27.8959 69.3518H50.6529V49.9523H27.8959V69.3518ZM2.59067 69.3518H25.3052V66.5756H2.59067V69.3518ZM79.0886 66.186V67.6927L97.4093 50.8171V49.2746L79.0886 66.186ZM53.2435 63.985H76.4974V60.8047H53.2435V63.985ZM2.59067 63.985H25.3052V60.8047H2.59067V63.985ZM79.0886 60.6518V62.6601L97.4093 45.7487V43.7404L79.0886 60.6518ZM53.2435 58.214H76.4974V55.2611H53.2435V58.214ZM2.59067 58.214H25.3052V55.2611H2.59067V58.214ZM79.0886 55.1725V57.1264L97.4093 40.215V38.2611L79.0886 55.1725ZM53.2435 52.6705H76.4974V49.9523H53.2435V52.6705ZM2.59067 52.6705H25.3052V49.9523H2.59067V52.6705ZM79.0886 49.2238V51.6466L97.4093 34.7352V32.3119L79.0886 49.2238ZM55.2544 47.3617H77.2865L95.3917 30.6492H73.3062L70.7684 32.999C71.6202 33.4824 72.4689 34.2186 72.7798 35.3073C73.1953 36.7611 72.5456 38.3197 70.8497 39.9414C66.7057 43.9031 60.3513 44.3544 58.4549 44.3984L55.2544 47.3617ZM30.1902 47.3617H51.4409L57.056 42.1632C57.0611 42.158 57.0663 42.1534 57.0715 42.1487L69.4922 30.6497H50.328L45.2611 34.8544C45.2477 34.8658 45.2342 34.8772 45.2202 34.8881L30.1902 47.3617ZM5.00984 47.3617H26.1332L30.7674 43.5155C30.0016 43.0549 29.285 42.3751 29.0523 41.3912C28.5057 39.0772 31.0342 37.1451 31.8653 36.5098C36.9389 32.6332 42.2477 32.4824 43.9834 32.5477L46.2715 30.6492H26.0585L5.00984 47.3617ZM40.5181 35.4238C38.501 35.8062 35.9238 36.6689 33.4383 38.5684C31.8368 39.7927 31.5181 40.5611 31.5736 40.7959C31.6425 41.0881 32.3021 41.4622 32.972 41.686L40.5181 35.4238ZM68.714 34.9005L61.6275 41.4617C63.9554 41.0394 66.9244 40.1104 69.0596 38.0689C69.9513 37.2161 70.4109 36.4508 70.2896 36.0202C70.1648 35.5798 69.4207 35.1539 68.714 34.9005Z" fill="url(#paint0_linear_2:281)"/>
<defs>
<linearGradient id="paint0_linear_2:281" x1="49.9997" y1="28.0573" x2="49.9997" y2="71.9425" gradientUnits="userSpaceOnUse">
<stop stop-color="#FFDC97"/>
<stop offset="1" stop-color="#FFC148"/>
</linearGradient>
</defs>
</svg>
